<svg width="50" height="44" viewBox="0 0 50 44" fill="none" xmlns="http://www.w3.org/2000/svg">
<path fill-rule="evenodd" clip-rule="evenodd" d="M13.125 0.25C14.1529 0.25 15.1091 0.776262 15.6592 1.64453L22.6924 12.75H34.5V3.25C34.5 1.59315 35.8431 0.25 37.5 0.25C39.1569 0.250001 40.5 1.59315 40.5 3.25V12.75H46.875L47.0293 12.7539C48.6144 12.8342 49.875 14.1449 49.875 15.75C49.875 17.3551 48.6144 18.6658 47.0293 18.7461L46.875 18.75H40.5V25.25H46.875L47.0293 25.2539C48.6144 25.3342 49.875 26.6449 49.875 28.25C49.875 29.8551 48.6144 31.1658 47.0293 31.2461L46.875 31.25H40.5V40.75C40.5 42.3551 39.2394 43.6658 37.6543 43.7461L37.5 43.75H36.875C35.9112 43.75 35.0103 43.2872 34.4482 42.5137L34.3408 42.3555L27.3076 31.25H15.5V40.75C15.5 42.4069 14.1569 43.75 12.5 43.75C10.8431 43.75 9.5 42.4069 9.5 40.75V31.25H3.125C1.46815 31.25 0.125 29.9069 0.125 28.25C0.125 26.5931 1.46815 25.25 3.125 25.25H9.5V18.75H3.125C1.46815 18.75 0.125 17.4069 0.125 15.75C0.125 14.0931 1.46815 12.75 3.125 12.75H9.5V3.25C9.5 1.59315 10.8431 0.25 12.5 0.25H13.125ZM34.5 31.3936V31.25H34.4092L34.5 31.3936ZM30.6094 25.25H34.5V18.75H26.4922L30.6094 25.25ZM15.5 25.25H23.5068L19.3906 18.75H15.5V25.25ZM15.5 12.75H15.5898L15.5 12.6074V12.75Z" fill="white"/>
</svg>
