<svg width="64" height="64" viewBox="0 0 64 64" fill="none" xmlns="http://www.w3.org/2000/svg">
<path fill-rule="evenodd" clip-rule="evenodd" d="M63.9572 6.10731C64.1715 4.69634 63.5702 3.2824 62.4063 2.4519C61.2424 1.62437 59.7094 1.52018 58.4443 2.18399C48.3205 7.50042 12.9064 26.093 2.02945 31.8024C0.686945 32.5049 -0.104864 33.9397 0.0112286 35.4489C0.127321 36.9581 1.1275 38.2559 2.56228 38.7471C12.9927 42.3221 44.162 53.0085 51.9253 55.6697C52.988 56.0359 54.1608 55.9079 55.1223 55.3274C56.0837 54.744 56.7356 53.7646 56.9053 52.6513L63.9572 6.10731ZM5.4884 35.0291L52.6099 51.1838L59.3433 6.75624L5.4884 35.0291Z" fill="white"/>
<path fill-rule="evenodd" clip-rule="evenodd" d="M26.415 44.7989L62.2637 7.39048C63.115 6.50044 63.0852 5.0865 62.1952 4.23516C61.3081 3.38084 59.8912 3.41061 59.0399 4.30065L23.1912 41.7091C22.3369 42.5991 22.3667 44.0131 23.2567 44.8674C24.1467 45.7188 25.5607 45.689 26.415 44.7989Z" fill="white"/>
<path fill-rule="evenodd" clip-rule="evenodd" d="M27.0334 56.9856V43.254C27.0334 42.0217 26.0333 41.0215 24.8009 41.0215C23.5685 41.0215 22.5684 42.0217 22.5684 43.254V58.4859C22.5684 59.9802 23.4465 61.3346 24.8069 61.9449C26.1702 62.5581 27.7627 62.314 28.879 61.3197C32.9333 57.7179 40.3126 51.1572 40.3126 51.1572C41.2324 50.3386 41.3158 48.9277 40.4972 48.0049C39.6786 47.0851 38.2676 47.0017 37.3478 47.8203L27.0334 56.9856Z" fill="white"/>
</svg>
