<svg width="41" height="24" viewBox="0 0 41 24" fill="none" xmlns="http://www.w3.org/2000/svg">
<path d="M25.725 2.56641H14.7744V21.4331H25.725V2.56641Z" fill="#FF5F00"/>
<path d="M15.4699 12C15.4699 8.16667 17.3472 4.76667 20.2326 2.56667C18.112 0.966667 15.4352 0 12.515 0C5.59699 0 0 5.36667 0 12C0 18.6333 5.59699 24 12.515 24C15.4352 24 18.112 23.0333 20.2326 21.4333C17.3472 19.2667 15.4699 15.8333 15.4699 12Z" fill="#EB001B"/>
<path d="M40.5002 12C40.5002 18.6333 34.9032 24 27.9852 24C25.065 24 22.3882 23.0333 20.2676 21.4333C23.1877 19.2333 25.0302 15.8333 25.0302 12C25.0302 8.16667 23.153 4.76667 20.2676 2.56667C22.3882 0.966667 25.065 0 27.9852 0C34.9032 0 40.5002 5.4 40.5002 12Z" fill="#F79E1B"/>
</svg>
