<svg width="209" height="266" viewBox="0 0 209 266" fill="none" xmlns="http://www.w3.org/2000/svg">
<path d="M169.94 60.4844H79.3051C35.5808 60.4844 0 96.2468 0 140.194C0 180.283 29.5959 213.555 67.9758 219.093V254.066C67.9758 258.669 70.7304 262.829 74.9683 264.585C79.1473 266.338 84.0491 265.398 87.3157 262.116L129.313 219.904H169.94C213.664 219.904 250 184.142 250 140.194C250 96.2468 213.664 60.4844 169.94 60.4844ZM79.3051 151.58C73.0468 151.58 67.9758 146.482 67.9758 140.193C67.9758 133.904 73.0468 128.806 79.3051 128.806C85.5619 128.806 90.6344 133.904 90.6344 140.193C90.6344 146.482 85.5619 151.58 79.3051 151.58ZM124.622 151.58C118.364 151.58 113.293 146.482 113.293 140.193C113.293 133.904 118.364 128.806 124.622 128.806C130.879 128.806 135.952 133.904 135.952 140.193C135.952 146.482 130.879 151.58 124.622 151.58ZM169.94 151.58C163.681 151.58 158.61 146.482 158.61 140.193C158.61 133.904 163.681 128.806 169.94 128.806C176.196 128.806 181.269 133.904 181.269 140.193C181.269 146.482 176.196 151.58 169.94 151.58Z" fill="#F79E1B"/>
</svg>
