<svg width="20" height="20" viewBox="0 0 20 20" fill="none" xmlns="http://www.w3.org/2000/svg">
<path fill-rule="evenodd" clip-rule="evenodd" d="M8.1675 11.3689C8.95367 10.6182 8.95367 9.3818 8.1675 8.6311L8.06007 8.5286C6.04496 6.60535 4.48833 5.12024 4.01909 2.00732C3.85307 0.90967 4.79349 0 5.92533 0H10.5H15.0747C16.2065 0 17.1469 0.90967 16.9809 2.00732C16.5117 5.12024 14.955 6.60535 12.9399 8.5286L12.8325 8.6311C12.0463 9.3818 12.0463 10.6182 12.8325 11.3689L12.9399 11.4714C14.955 13.3947 16.5117 14.8798 16.9809 17.9927C17.1469 19.0903 16.2065 20 15.0747 20H10.5H5.92533C4.79349 20 3.85307 19.0903 4.01909 17.9927C4.48833 14.8798 6.04496 13.3947 8.06007 11.4714L8.1675 11.3689ZM8.85057 13.0665L8.84327 13.0728C7.30764 14.4459 6.16506 15.4681 6.01615 17.9963C6.00687 18.1519 6.07425 18.2915 6.18411 18.384C6.26956 18.4564 6.38137 18.5 6.50344 18.5H10.5H14.496C14.6401 18.5 14.77 18.4392 14.8593 18.3422C14.9428 18.2518 14.9912 18.13 14.9833 17.9963C14.8344 15.4681 13.6918 14.4459 12.1567 13.0728C11.7504 12.7096 11.3169 12.3218 10.8672 11.8751C10.6646 11.6738 10.335 11.6738 10.1324 11.8751C9.68506 12.3192 9.25396 12.7052 8.85057 13.0665Z" fill="black" fill-opacity="0.32"/>
</svg>
